<svg id="visual" viewBox="0 0 1980 1080" width="1980" height="1080" xmlns="http://www.w3.org/2000/svg" xmlns:xlink="http://www.w3.org/1999/xlink" version="1.1"><rect x="0" y="0" width="1980" height="1080" fill="#ffffff"></rect><path d="M0 802L47.2 793.2C94.3 784.3 188.7 766.7 283 749.3C377.3 732 471.7 715 566 711C660.3 707 754.7 716 848.8 717.5C943 719 1037 713 1131.2 702C1225.3 691 1319.7 675 1414 676.5C1508.3 678 1602.7 697 1697 710.8C1791.3 724.7 1885.7 733.3 1932.8 737.7L1980 742L1980 1081L1932.8 1081C1885.7 1081 1791.3 1081 1697 1081C1602.7 1081 1508.3 1081 1414 1081C1319.7 1081 1225.3 1081 1131.2 1081C1037 1081 943 1081 848.8 1081C754.7 1081 660.3 1081 566 1081C471.7 1081 377.3 1081 283 1081C188.7 1081 94.3 1081 47.2 1081L0 1081Z" fill="#0066ff"></path><path d="M0 757L47.2 759.2C94.3 761.3 188.7 765.7 283 758.5C377.3 751.3 471.7 732.7 566 726.2C660.3 719.7 754.7 725.3 848.8 747C943 768.7 1037 806.3 1131.2 824.7C1225.3 843 1319.7 842 1414 837.8C1508.3 833.7 1602.7 826.3 1697 815.8C1791.3 805.3 1885.7 791.7 1932.8 784.8L1980 778L1980 1081L1932.8 1081C1885.7 1081 1791.3 1081 1697 1081C1602.7 1081 1508.3 1081 1414 1081C1319.7 1081 1225.3 1081 1131.2 1081C1037 1081 943 1081 848.8 1081C754.7 1081 660.3 1081 566 1081C471.7 1081 377.3 1081 283 1081C188.7 1081 94.3 1081 47.2 1081L0 1081Z" fill="#0052c5"></path><path d="M0 862L47.2 851C94.3 840 188.7 818 283 806.7C377.3 795.3 471.7 794.7 566 800.3C660.3 806 754.7 818 848.8 825.7C943 833.3 1037 836.7 1131.2 851.2C1225.3 865.7 1319.7 891.3 1414 902.7C1508.3 914 1602.7 911 1697 907.7C1791.3 904.3 1885.7 900.7 1932.8 898.8L1980 897L1980 1081L1932.8 1081C1885.7 1081 1791.3 1081 1697 1081C1602.7 1081 1508.3 1081 1414 1081C1319.7 1081 1225.3 1081 1131.2 1081C1037 1081 943 1081 848.8 1081C754.7 1081 660.3 1081 566 1081C471.7 1081 377.3 1081 283 1081C188.7 1081 94.3 1081 47.2 1081L0 1081Z" fill="#003e8c"></path><path d="M0 902L47.2 908.8C94.3 915.7 188.7 929.3 283 933.7C377.3 938 471.7 933 566 920.7C660.3 908.3 754.7 888.7 848.8 893.7C943 898.7 1037 928.3 1131.2 928.8C1225.3 929.3 1319.7 900.7 1414 889.3C1508.3 878 1602.7 884 1697 886.2C1791.3 888.3 1885.7 886.7 1932.8 885.8L1980 885L1980 1081L1932.8 1081C1885.7 1081 1791.3 1081 1697 1081C1602.7 1081 1508.3 1081 1414 1081C1319.7 1081 1225.3 1081 1131.2 1081C1037 1081 943 1081 848.8 1081C754.7 1081 660.3 1081 566 1081C471.7 1081 377.3 1081 283 1081C188.7 1081 94.3 1081 47.2 1081L0 1081Z" fill="#002955"></path><path d="M0 961L47.2 959.5C94.3 958 188.7 955 283 957C377.3 959 471.7 966 566 968.3C660.3 970.7 754.7 968.3 848.8 971.2C943 974 1037 982 1131.2 992.3C1225.3 1002.7 1319.7 1015.3 1414 1018.2C1508.3 1021 1602.7 1014 1697 1014.3C1791.3 1014.7 1885.7 1022.3 1932.8 1026.2L1980 1030L1980 1081L1932.8 1081C1885.7 1081 1791.3 1081 1697 1081C1602.7 1081 1508.3 1081 1414 1081C1319.7 1081 1225.3 1081 1131.2 1081C1037 1081 943 1081 848.8 1081C754.7 1081 660.3 1081 566 1081C471.7 1081 377.3 1081 283 1081C188.7 1081 94.3 1081 47.2 1081L0 1081Z" fill="#001122"></path></svg>